<?xml version="1.0" encoding="utf-8"?>
<!-- Generator: Adobe Illustrator 27.3.1, SVG Export Plug-In . SVG Version: 6.00 Build 0)  -->
<svg version="1.1" id="Layer_1" xmlns="http://www.w3.org/2000/svg" xmlns:xlink="http://www.w3.org/1999/xlink" x="0px" y="0px"
	 viewBox="0 0 640 640" style="enable-background:new 0 0 640 640;" xml:space="preserve">
<style type="text/css">
	.st0{fill:url(#logoGradient);}
	.st1{fill:#27233a;}
</style>
<g>
	<defs>
        <linearGradient id="logoGradient" x1="0%" y1="0%" x2="33%" y2="88%" x3="88%" y3="33%" x4="100%" y4="100%">
        <stop offset="0%" stop-color="#b0b0ff80" />
		<stop offset="33%" stop-color="#b0b0ff80" />
		<stop offset="88%" stop-color="#e7f3f080" />
        <stop offset="100%" stop-color="#e7f3f080" />
        </linearGradient>
    </defs>
	<path class="st0" d="M1509.5,247.5c-0.1-1.1,0.6-1.8,1.1-2.6c6.1-10,12.3-20,18.4-30c3.2-5.3,6.4-10.5,9.6-15.9
		c1,0.4,1.4,1.3,1.8,2c1.7,3,3.6,5.9,5.5,8.8c29.3,45.5,57.9,91.4,86.9,137.1c4.9,7.7,9.8,15.5,14.7,23.2c1.9,3,3.8,6,5.6,9
		c-0.5,0.8-1.1,0.5-1.6,0.5c-19.1,0-38.2,0-57.3,0c-0.7,0-1.4,0.1-2.1-0.3c0-1-0.8-1.7-1.3-2.5c-8.5-13.6-17.1-27.2-25.6-40.8
		c-18.1-28.9-36.2-57.8-54.4-86.7C1510.6,248.6,1510.5,247.8,1509.5,247.5z"/>
	<path class="st0" d="M1362.3,253.2c0.8,0.3,1.1,1.2,1.5,1.8c9.8,15.9,19.5,31.9,29.3,47.8c0.9,1.4,0.9,2.4,0,3.8
		c-14.6,23.7-29.2,47.5-43.7,71.3c-0.7,1.1-1.4,1.7-2.8,1.7c-21.3-0.1-42.7,0-64,0c-0.3,0-0.6,0-1-0.1c0-0.7,0.5-1.2,0.9-1.7
		c10.7-16.8,21.4-33.5,32.1-50.3c14.5-22.7,29-45.5,43.6-68.2C1359.5,257.3,1360.6,255.1,1362.3,253.2z"/>
	<path class="st0" d="M1502.6,258.2c25.3,40.5,50.4,80.7,75.5,120.9c-0.4,0.7-1.1,0.5-1.6,0.5c-19.6,0-39.2,0-58.7,0
		c-1.2,0-2-0.2-2.7-1.4c-14.2-22.8-28.4-45.5-42.6-68.3c-0.6-1-0.7-1.7,0-2.8c9.8-15.9,19.5-31.9,29.3-47.8
		C1502,259,1502.2,258.7,1502.6,258.2z"/>
	<path class="st0" d="M1397.3,197.7c1.5,1.7,2.7,3.6,3.7,5.6c0.9,1.7,2,3.2,3,4.8c1.3,1.9,2.6,3.9,3.8,5.9
		c6.8,10.6,13.4,21.4,20.1,32.1c0.9,1.4,0.9,2.4,0,3.8c-10.1,16.3-20.1,32.7-30.1,49c-0.4,0.6-0.6,1.3-1.4,1.8
		c-0.5-0.8-1-1.5-1.5-2.3c-9.6-15.7-19.2-31.3-28.8-47c-0.6-1-1.9-1.8-1.6-3.3c0.7-0.1,1.1-0.6,1.5-1.1c0.6-0.9,1.1-1.7,1.7-2.6
		c7.8-12.1,15.5-24.3,23.3-36.5C1393.2,204.5,1395.6,201.3,1397.3,197.7z"/>
	<path class="st0" d="M1435.7,259c0.9,0.4,1.1,1.3,1.6,2c8.3,13.3,16.6,26.6,24.9,39.8c1.3,2.1,2.1,4.6,3.9,6.5
		c0.4,0.4,0.4,1.1,0.1,1.9c-0.5,1.3-1.4,2.5-2.1,3.7c-2.8,5-5.8,9.8-8.8,14.7c-6.5,10.7-13.1,21.4-19.7,32.1c-0.4,0.7-0.7,1.4-1.4,2
		c-0.7-0.3-0.9-1-1.2-1.6c-9.5-15.5-18.9-30.9-28.4-46.4c-0.5-0.7-1.1-1.4-1.1-2.4c0.7-0.3,0.8-0.9,1.2-1.5
		c8.3-13.5,16.6-26.9,24.9-40.4C1431.5,266,1433.9,262.7,1435.7,259z"/>
	<path class="st0" d="M1431.4,144.5c0.7,0.2,0.9,0.9,1.2,1.4c9.6,15.4,19.2,30.8,28.8,46.1c0.8,1.2,0.7,2,0,3.2
		c-9.7,15.8-19.4,31.6-29.1,47.4c-0.2,0.4-0.3,0.9-0.9,1c-0.7-0.4-0.9-1.1-1.3-1.7c-9.7-15.5-19.4-31-29-46.5c-0.4-0.7-1-1.3-1-2.1
		c0.5-0.2,0.7-0.7,0.9-1c8.4-13.1,16.7-26.2,25.1-39.3C1427.9,150.2,1429.9,147.5,1431.4,144.5z"/>
	<path class="st0" d="M1469.8,205.8c1.5,2.6,3.2,4.9,4.8,7.4c8.3,13.2,16.5,26.4,24.8,39.6c0.5,0.9,0.8,1.6,0.2,2.6
		c-9.9,16.1-19.8,32.3-29.7,48.4c-0.1,0.2-0.2,0.4-0.7,0.4c-0.6-0.4-0.9-1.2-1.3-1.8c-9.5-15.2-18.9-30.3-28.4-45.5
		c-0.5-0.8-1.2-1.5-1.1-2.6c0.8-0.2,1-1,1.3-1.6c6.3-10.2,12.6-20.4,18.9-30.6c3.1-5.1,6.2-10.2,9.3-15.3
		C1468.4,206.1,1468.8,205.6,1469.8,205.8z"/>
	<path class="st0" d="M1505.3,145.8c0.9,0.3,1.1,1.1,1.5,1.7c9.6,15.1,19.1,30.2,28.7,45.3c0.9,1.4,0.9,2.4,0,3.8
		c-9.1,14.8-18.2,29.6-27.3,44.5c-0.4,0.7-0.6,1.5-1.5,1.8c0.1-0.7-0.4-1.2-0.8-1.7c-9.3-14.8-18.6-29.7-27.9-44.5
		c-1.9-3-1.9-3,0-6.1c8.8-14.2,17.5-28.4,26.3-42.7C1504.7,147.2,1505.4,146.7,1505.3,145.8z"/>
	<path class="st1" d="M1362.3,253.2c-1.7,1.8-2.8,4.1-4.1,6.1c-14.5,22.7-29.1,45.5-43.6,68.2c-10.7,16.8-21.4,33.5-32.1,50.3
		c-0.3,0.5-0.8,1-0.9,1.7c-2.9,0-5.9,0-8.9,0c-0.3-1.1,0.5-1.7,0.9-2.4c7.4-11.6,14.8-23.2,22.1-34.8c14.8-23.3,29.6-46.5,44.3-69.8
		c5.3-8.4,10.6-16.7,15.9-25.1c0.4-0.7,0.7-1.4,1.8-2C1359.4,248.1,1361.3,250.4,1362.3,253.2z"/>
	<path class="st1" d="M1509.5,247.5c0.9,0.2,1.1,1.1,1.5,1.7c18.1,28.9,36.2,57.8,54.4,86.7c8.5,13.6,17.1,27.2,25.6,40.8
		c0.5,0.8,1.2,1.5,1.3,2.5c-2.8,0.6-5.6,0.2-8.3,0.2c-1,0-1.2-0.9-1.6-1.6c-2.8-4.4-5.6-8.9-8.4-13.4c-8.5-13.5-16.9-27.1-25.4-40.6
		c-12.5-20-25-40.1-37.5-60.1c-1.7-2.7-3.3-5.5-5.1-8.1c-0.7-1.1-0.8-2,0-3c0.9-1.2,1.6-2.6,2.4-3.9
		C1508.6,248.3,1508.8,247.6,1509.5,247.5z"/>
	<path class="st1" d="M1505.3,145.8c0.1,0.9-0.6,1.5-1,2.1c-8.7,14.2-17.5,28.5-26.3,42.7c-1.9,3-1.9,3,0,6.1
		c9.3,14.8,18.6,29.7,27.9,44.5c0.3,0.5,0.8,1,0.8,1.7c-0.7,2.7-2.7,4.6-3.8,6.9c-0.8,0-1-0.5-1.2-0.8
		c-11.2-17.9-22.3-35.9-33.6-53.8c-0.8-1.3-0.6-2,0.1-3.2c8.4-13.7,16.8-27.3,25.1-41c2.1-3.5,4.3-6.9,6.4-10.4
		c0.4-0.6,0.6-1.3,1.5-1.8C1502.6,141.1,1504.5,143,1505.3,145.8z"/>
	<path class="st1" d="M1397.3,197.7c-1.7,3.6-4.1,6.8-6.2,10.1c-7.7,12.2-15.5,24.3-23.3,36.5c-0.6,0.9-1.1,1.8-1.7,2.6
		c-0.4,0.5-0.8,1-1.5,1.1c-1.9-1.7-2.8-4.2-4.2-6.3c-0.5-0.8,0.2-1.3,0.5-1.9c2.9-4.5,5.7-9.1,8.6-13.6
		c7.3-11.4,14.5-22.8,21.8-34.2c0.4-0.7,0.7-1.4,1.6-2C1394.3,192.7,1396.5,194.9,1397.3,197.7z"/>
	<path class="st1" d="M1431.4,144.5c-1.5,3-3.5,5.7-5.3,8.5c-8.3,13.1-16.7,26.2-25.1,39.3c-0.2,0.4-0.4,0.9-0.9,1
		c-1.9-2-2.9-4.5-4.5-6.7c-0.5-0.7,0-1.2,0.3-1.8c1.2-2,2.5-3.9,3.7-5.9c8.6-13.5,17.2-27,25.8-40.5c0.3-0.5,0.7-1,1.3-1.8
		C1428.4,139.4,1430.3,141.7,1431.4,144.5z"/>
	<path class="st1" d="M1435.7,259c-1.8,3.6-4.1,7-6.3,10.5c-8.3,13.5-16.6,26.9-24.9,40.4c-0.3,0.5-0.5,1.2-1.2,1.5
		c-1.7-1.7-2.6-4-3.9-5.9c-0.6-0.9,0.2-1.6,0.6-2.4c2.9-4.8,5.8-9.5,8.7-14.3c7.2-11.8,14.4-23.5,21.7-35.3c0.2-0.4,0.4-0.9,1.2-1.2
		C1433.1,254.4,1434.7,256.6,1435.7,259z"/>
	<path class="st1" d="M1469.8,205.8c-1-0.2-1.4,0.3-1.8,1.1c-3.1,5.1-6.2,10.2-9.3,15.3c-6.3,10.2-12.6,20.4-18.9,30.6
		c-0.4,0.6-0.5,1.4-1.3,1.6c-1,0-1-0.9-1.4-1.4c-0.7-1-1.3-2.2-2.1-3.2c-1-1.2-0.8-2.3,0-3.5c6.2-10.1,12.4-20.1,18.6-30.2
		c3.4-5.6,6.8-11.1,10.2-16.7c0.3-0.5,0.6-0.9,1-1.5c1.3,1.5,2.3,3.2,3.2,4.8C1468.5,203.7,1469.7,204.4,1469.8,205.8z"/>
</g>
<g>
	<path class="st0" d="M361.3,358c-0.1-1.1,0.6-1.8,1.1-2.6c6.1-10,12.3-20,18.4-30c3.2-5.3,6.4-10.5,9.6-15.9c1,0.4,1.4,1.3,1.8,2
		c1.7,3,3.6,5.9,5.5,8.8c29.3,45.5,57.9,91.4,86.9,137.1c4.9,7.7,9.8,15.5,14.7,23.2c1.9,3,3.8,6,5.6,9c-0.5,0.8-1.1,0.5-1.6,0.5
		c-19.1,0-38.2,0-57.3,0c-0.7,0-1.4,0.1-2.1-0.3c0-1-0.8-1.7-1.3-2.5c-8.5-13.6-17.1-27.2-25.6-40.8c-18.1-28.9-36.2-57.8-54.4-86.7
		C362.4,359.1,362.2,358.2,361.3,358z"/>
	<path class="st0" d="M214.1,363.7c0.8,0.3,1.1,1.2,1.5,1.8c9.8,15.9,19.5,31.9,29.3,47.8c0.9,1.4,0.9,2.4,0,3.8
		c-14.6,23.7-29.2,47.5-43.7,71.3c-0.7,1.1-1.4,1.7-2.8,1.7c-21.3-0.1-42.7,0-64,0c-0.3,0-0.6,0-1-0.1c0-0.7,0.5-1.2,0.9-1.7
		c10.7-16.8,21.4-33.5,32.1-50.3c14.5-22.7,29-45.5,43.6-68.2C211.2,367.7,212.4,365.5,214.1,363.7z"/>
	<path class="st0" d="M354.4,368.6c25.3,40.5,50.4,80.7,75.5,120.9c-0.4,0.7-1.1,0.5-1.6,0.5c-19.6,0-39.2,0-58.7,0
		c-1.2,0-2-0.2-2.7-1.4c-14.2-22.8-28.4-45.5-42.6-68.3c-0.6-1-0.7-1.7,0-2.8c9.8-15.9,19.5-31.9,29.3-47.8
		C353.7,369.5,354,369.2,354.4,368.6z"/>
	<path class="st0" d="M249,308.2c1.5,1.7,2.7,3.6,3.7,5.6c0.9,1.7,2,3.2,3,4.8c1.3,1.9,2.6,3.9,3.8,5.9
		c6.8,10.6,13.4,21.4,20.1,32.1c0.9,1.4,0.9,2.4,0,3.8c-10.1,16.3-20.1,32.7-30.1,49c-0.4,0.6-0.6,1.3-1.4,1.8
		c-0.5-0.8-1-1.5-1.5-2.3c-9.6-15.7-19.2-31.3-28.8-47c-0.6-1-1.9-1.8-1.6-3.3c0.7-0.1,1.1-0.6,1.5-1.1c0.6-0.9,1.1-1.7,1.7-2.6
		c7.8-12.1,15.5-24.3,23.3-36.5C244.9,314.9,247.3,311.7,249,308.2z"/>
	<path class="st0" d="M287.4,369.5c0.9,0.4,1.1,1.3,1.6,2c8.3,13.3,16.6,26.6,24.9,39.8c1.3,2.1,2.1,4.6,3.9,6.5
		c0.4,0.4,0.4,1.1,0.1,1.9c-0.5,1.3-1.4,2.5-2.1,3.7c-2.8,5-5.8,9.8-8.8,14.7c-6.5,10.7-13.1,21.4-19.7,32.1c-0.4,0.7-0.7,1.4-1.4,2
		c-0.7-0.3-0.9-1-1.2-1.6c-9.5-15.5-18.9-30.9-28.4-46.4c-0.5-0.7-1.1-1.4-1.1-2.4c0.7-0.3,0.8-0.9,1.2-1.5
		c8.3-13.5,16.6-26.9,24.9-40.4C283.3,376.5,285.6,373.1,287.4,369.5z"/>
	<path class="st0" d="M283.1,254.9c0.7,0.2,0.9,0.9,1.2,1.4c9.6,15.4,19.2,30.8,28.8,46.1c0.8,1.2,0.7,2,0,3.2
		c-9.7,15.8-19.4,31.6-29.1,47.4c-0.2,0.4-0.3,0.9-0.9,1c-0.7-0.4-0.9-1.1-1.3-1.7c-9.7-15.5-19.4-31-29-46.5c-0.4-0.7-1-1.3-1-2.1
		c0.5-0.2,0.7-0.7,0.9-1c8.4-13.1,16.7-26.2,25.1-39.3C279.6,260.6,281.6,257.9,283.1,254.9z"/>
	<path class="st0" d="M321.5,316.2c1.5,2.6,3.2,4.9,4.8,7.4c8.3,13.2,16.5,26.4,24.8,39.6c0.5,0.9,0.8,1.6,0.2,2.6
		c-9.9,16.1-19.8,32.3-29.7,48.4c-0.1,0.2-0.2,0.4-0.7,0.4c-0.6-0.4-0.9-1.2-1.3-1.8c-9.5-15.2-18.9-30.3-28.4-45.5
		c-0.5-0.8-1.2-1.5-1.1-2.6c0.8-0.2,1-1,1.3-1.6c6.3-10.2,12.6-20.4,18.9-30.6c3.1-5.1,6.2-10.2,9.3-15.3
		C320.1,316.6,320.5,316,321.5,316.2z"/>
	<path class="st0" d="M357,256.2c0.9,0.3,1.1,1.1,1.5,1.7c9.6,15.1,19.1,30.2,28.7,45.3c0.9,1.4,0.9,2.4,0,3.8
		c-9.1,14.8-18.2,29.6-27.3,44.5c-0.4,0.7-0.6,1.5-1.5,1.8c0.1-0.7-0.4-1.2-0.8-1.7c-9.3-14.8-18.6-29.7-27.9-44.5
		c-1.9-3-1.9-3,0-6.1c8.8-14.2,17.5-28.4,26.3-42.7C356.4,257.7,357.1,257.1,357,256.2z"/>
	<path class="st1" d="M214.1,363.7c-1.7,1.8-2.8,4.1-4.1,6.1c-14.5,22.7-29.1,45.5-43.6,68.2c-10.7,16.8-21.4,33.5-32.1,50.3
		c-0.3,0.5-0.8,1-0.9,1.7c-2.9,0-5.9,0-8.9,0c-0.3-1.1,0.5-1.7,0.9-2.4c7.4-11.6,14.8-23.2,22.1-34.8c14.8-23.3,29.6-46.5,44.3-69.8
		c5.3-8.4,10.6-16.7,15.9-25.1c0.4-0.7,0.7-1.4,1.8-2C211.1,358.5,213,360.8,214.1,363.7z"/>
	<path class="st1" d="M361.3,358c0.9,0.2,1.1,1.1,1.5,1.7c18.1,28.9,36.2,57.8,54.4,86.7c8.5,13.6,17.1,27.2,25.6,40.8
		c0.5,0.8,1.2,1.5,1.3,2.5c-2.8,0.6-5.6,0.2-8.3,0.2c-1,0-1.2-0.9-1.6-1.6c-2.8-4.4-5.6-8.9-8.4-13.4c-8.5-13.5-16.9-27.1-25.4-40.6
		c-12.5-20-25-40.1-37.5-60.1c-1.7-2.7-3.3-5.5-5.1-8.1c-0.7-1.1-0.8-2,0-3c0.9-1.2,1.6-2.6,2.4-3.9
		C360.3,358.7,360.5,358.1,361.3,358z"/>
	<path class="st1" d="M357,256.2c0.1,0.9-0.6,1.5-1,2.1c-8.7,14.2-17.5,28.5-26.3,42.7c-1.9,3-1.9,3,0,6.1
		c9.3,14.8,18.6,29.7,27.9,44.5c0.3,0.5,0.8,1,0.8,1.7c-0.7,2.7-2.7,4.6-3.8,6.9c-0.8,0-1-0.5-1.2-0.8
		c-11.2-17.9-22.3-35.9-33.6-53.8c-0.8-1.3-0.6-2,0.1-3.2c8.4-13.7,16.8-27.3,25.1-41c2.1-3.5,4.3-6.9,6.4-10.4
		c0.4-0.6,0.6-1.3,1.5-1.8C354.3,251.5,356.3,253.5,357,256.2z"/>
	<path class="st1" d="M249,308.2c-1.7,3.6-4.1,6.8-6.2,10.1c-7.7,12.2-15.5,24.3-23.3,36.5c-0.6,0.9-1.1,1.8-1.7,2.6
		c-0.4,0.5-0.8,1-1.5,1.1c-1.9-1.7-2.8-4.2-4.2-6.3c-0.5-0.8,0.2-1.3,0.5-1.9c2.9-4.5,5.7-9.1,8.6-13.6
		c7.3-11.4,14.5-22.8,21.8-34.2c0.4-0.7,0.7-1.4,1.6-2C246,303.2,248.2,305.3,249,308.2z"/>
	<path class="st1" d="M283.1,254.9c-1.5,3-3.5,5.7-5.3,8.5c-8.3,13.1-16.7,26.2-25.1,39.3c-0.2,0.4-0.4,0.9-0.9,1
		c-1.9-2-2.9-4.5-4.5-6.7c-0.5-0.7,0-1.2,0.3-1.8c1.2-2,2.5-3.9,3.7-5.9c8.6-13.5,17.2-27,25.8-40.5c0.3-0.5,0.7-1,1.3-1.8
		C280.1,249.8,282,252.1,283.1,254.9z"/>
	<path class="st1" d="M287.4,369.5c-1.8,3.6-4.1,7-6.3,10.5c-8.3,13.5-16.6,26.9-24.9,40.4c-0.3,0.5-0.5,1.2-1.2,1.5
		c-1.7-1.7-2.6-4-3.9-5.9c-0.6-0.9,0.2-1.6,0.6-2.4c2.9-4.8,5.8-9.5,8.7-14.3c7.2-11.8,14.4-23.5,21.7-35.3c0.2-0.4,0.4-0.9,1.2-1.2
		C284.9,364.9,286.4,367,287.4,369.5z"/>
	<path class="st1" d="M321.5,316.2c-1-0.2-1.4,0.3-1.8,1.1c-3.1,5.1-6.2,10.2-9.3,15.3c-6.3,10.2-12.6,20.4-18.9,30.6
		c-0.4,0.6-0.5,1.4-1.3,1.6c-1,0-1-0.9-1.4-1.4c-0.7-1-1.3-2.2-2.1-3.2c-1-1.2-0.8-2.3,0-3.5c6.2-10.1,12.4-20.1,18.6-30.2
		c3.4-5.6,6.8-11.1,10.2-16.7c0.3-0.5,0.6-0.9,1-1.5c1.3,1.5,2.3,3.2,3.2,4.8C320.2,314.1,321.4,314.8,321.5,316.2z"/>
</g>
</svg>
