<?xml version="1.0" encoding="UTF-8" standalone="no" ?>
<!DOCTYPE svg PUBLIC "-//W3C//DTD SVG 1.1//EN" "http://www.w3.org/Graphics/SVG/1.1/DTD/svg11.dtd">
<svg xmlns="http://www.w3.org/2000/svg" xmlns:xlink="http://www.w3.org/1999/xlink" version="1.1" width="640" height="640" viewBox="0 0 640 640" xml:space="preserve">
<desc>Created with Fabric.js 5.3.0</desc>
<defs>
</defs>
<g transform="matrix(4.7525625 0 0 4.7525625 319.5 319.5)" id="0yALTdueibKaD459SpJDS"  >
<path style="stroke: rgb(163,155,168); stroke-width: 0; stroke-dasharray: none; stroke-linecap: butt; stroke-dashoffset: 0; stroke-linejoin: miter; stroke-miterlimit: 4; fill: rgb(255,255,255); fill-rule: nonzero; opacity: 1;" vector-effect="non-scaling-stroke"  transform=" translate(0, 0)" d="M -67.22689 -67.22689 L 67.22689 -67.22689 L 67.22689 67.22689 L -67.22689 67.22689 z" stroke-linecap="round" />
</g>
<g transform="matrix(4.711249919 0 0 3.7242861501 321.8054466473 338.7341016074)" id="gyUcz-pLcFrxv1_h4_BIC"  >
<path style="stroke: none; stroke-width: 1; stroke-dasharray: none; stroke-linecap: butt; stroke-dashoffset: 0; stroke-linejoin: miter; stroke-miterlimit: 4; fill: rgb(39,43,43); fill-rule: nonzero; opacity: 1;" vector-effect="non-scaling-stroke"  transform=" translate(-40, -40)" d="M 60 40 L 80 80 L 40 80 L 0 80 L 20 40 L 40 0 L 60 40 z" stroke-linecap="round" />
</g>
<g transform="matrix(1.0263058673 0.0189994142 -0.017931812 1.0895436565 208.3355546982 367.892213815)" id="Avz6fkDB6gVzj4PDdcUfx"  >
<path style="stroke: rgb(163,155,168); stroke-width: 10; stroke-dasharray: none; stroke-linecap: round; stroke-dashoffset: 0; stroke-linejoin: round; stroke-miterlimit: 10; fill: none; fill-rule: nonzero; opacity: 1;" vector-effect="non-scaling-stroke"  transform=" translate(-210.4276790741, -341.7592592593)" d="M 285.42263874384344 226.9444444444444 Q 285.42763874384343 226.9444444444444 210.42763874384343 341.75925925925924 L 135.43263874384343 456.574074074074" stroke-linecap="round" />
</g>
<g transform="matrix(1.0264622025 0 0 1.0897096246 283.3156595103 372.1333937724)" id="p2qOFUts6Hru4JrfhRTnC"  >
<path style="stroke: rgb(163,155,168); stroke-width: 10; stroke-dasharray: none; stroke-linecap: round; stroke-dashoffset: 0; stroke-linejoin: round; stroke-miterlimit: 10; fill: none; fill-rule: nonzero; opacity: 1;" vector-effect="non-scaling-stroke"  transform=" translate(-210.4276790741, -341.7592592593)" d="M 285.42263874384344 226.9444444444444 Q 285.42763874384343 226.9444444444444 210.42763874384343 341.75925925925924 L 135.43263874384343 456.574074074074" stroke-linecap="round" />
</g>
<g transform="matrix(-1.026423118 0.0095000688 0.0089662474 1.0896681318 400.2846642422 418.786372923)" id="5FiAKW8UjMNRVTJS5kCLa"  >
<path style="stroke: rgb(163,155,168); stroke-width: 10; stroke-dasharray: none; stroke-linecap: round; stroke-dashoffset: 0; stroke-linejoin: round; stroke-miterlimit: 10; fill: none; fill-rule: nonzero; opacity: 1;" vector-effect="non-scaling-stroke"  transform=" translate(0, 0)" d="M 74.995 -114.81481 C 74.99833000000001 -114.81481 50 -76.54320999999999 0 0 L -74.995 114.81481" stroke-linecap="round" />
</g>
<g transform="matrix(4.711249919 0 0 -3.7242861501 320.8057119164 151.0618884898)" id="kqy1RYqmdJUlwoGVy0NRk"  >
<path style="stroke: rgb(255,255,255); stroke-width: 3; stroke-dasharray: none; stroke-linecap: butt; stroke-dashoffset: 0; stroke-linejoin: miter; stroke-miterlimit: 4; fill: rgb(255,255,255); fill-rule: nonzero; opacity: 1;" vector-effect="non-scaling-stroke"  transform=" translate(-40, -40)" d="M 60 40 L 80 80 L 40 80 L 0 80 L 20 40 L 40 0 L 60 40 z" stroke-linecap="round" />
</g>
<g transform="matrix(1.0008871703 0 0 1.0613336899 377.7905915737 391.218703581)" id="u6GPm3ySOtJiSrH0zIiRv"  >
<path style="stroke: rgb(255,255,255); stroke-width: 4; stroke-dasharray: none; stroke-linecap: round; stroke-dashoffset: 0; stroke-linejoin: round; stroke-miterlimit: 10; fill: none; fill-rule: nonzero; opacity: 1;" vector-effect="non-scaling-stroke"  transform=" translate(-374.9046793761, -348.2842287695)" d="M 475.28896187175036 499.1364488734834 Q 475.2859618717504 499.1334488734834 474.73136915077987 499.1334488734834 Q 474.17677642980937 499.1334488734834 374.3500866551126 348.2842287694973 L 274.5203968804159 197.43200866551115" stroke-linecap="round" />
</g>
<g transform="matrix(0.9992638947 0 0 1.0606345273 266.3201690863 391.218703581)" id="Fsm4GRxHM9U05XeDxOEm1"  >
<path style="stroke: rgb(255,255,255); stroke-width: 4; stroke-dasharray: none; stroke-linecap: round; stroke-dashoffset: 0; stroke-linejoin: round; stroke-miterlimit: 10; fill: none; fill-rule: nonzero; opacity: 1;" vector-effect="non-scaling-stroke"  transform=" translate(-211.2998266898, -371.0225303293)" d="M 109.2517660311958 527.9722703639513 Q 109.2547660311958 527.9722703639513 211.29982668977465 371.0225303292893 L 313.3478873483535 214.07279029462725" stroke-linecap="round" />
</g>
<g transform="matrix(1.0008871703 0 0 1.0613336899 327.8038550323 418.7863733045)" id="ymDNgTP3ez2L1PUDzEulT"  >
<path style="stroke: rgb(255,255,255); stroke-width: 4; stroke-dasharray: none; stroke-linecap: round; stroke-dashoffset: 0; stroke-linejoin: round; stroke-miterlimit: 10; fill: none; fill-rule: nonzero; opacity: 1;" vector-effect="non-scaling-stroke"  transform=" translate(-374.9046793761, -348.2842287695)" d="M 475.28896187175036 499.1364488734834 Q 475.2859618717504 499.1334488734834 474.73136915077987 499.1334488734834 Q 474.17677642980937 499.1334488734834 374.3500866551126 348.2842287694973 L 274.5203968804159 197.43200866551115" stroke-linecap="round" />
</g>
<g transform="matrix(0.9992638947 0 0 1.0606345273 328.3037223977 412.4246033683)" id="eiA29WyBFdzSJXpXNIq5K"  >
<path style="stroke: rgb(255,255,255); stroke-width: 4; stroke-dasharray: none; stroke-linecap: round; stroke-dashoffset: 0; stroke-linejoin: round; stroke-miterlimit: 10; fill: none; fill-rule: nonzero; opacity: 1;" vector-effect="non-scaling-stroke"  transform=" translate(-211.2998266898, -371.0225303293)" d="M 109.2517660311958 527.9722703639513 Q 109.2547660311958 527.9722703639513 211.29982668977465 371.0225303292893 L 313.3478873483535 214.07279029462725" stroke-linecap="round" />
</g>
<g transform="matrix(-0.9992638947 0 0 1.0606345273 250.324413393 408.1834234109)" id="uRvf0x8cfAQkzsfHtnRIA"  >
<path style="stroke: rgb(255,255,255); stroke-width: 4; stroke-dasharray: none; stroke-linecap: round; stroke-dashoffset: 0; stroke-linejoin: round; stroke-miterlimit: 10; fill: none; fill-rule: nonzero; opacity: 1;" vector-effect="non-scaling-stroke"  transform=" translate(-211.2998266898, -371.0225303293)" d="M 109.2517660311958 527.9722703639513 Q 109.2547660311958 527.9722703639513 211.29982668977465 371.0225303292893 L 313.3478873483535 214.07279029462725" stroke-linecap="round" />
</g>
<g transform="matrix(1.4496153597 0 0 1.1530708009 325.3045182052 464.9092053419)" id="b5HCpkazmRjro2Jg1c9zm"  >
<path style="stroke: none; stroke-width: 1; stroke-dasharray: none; stroke-linecap: butt; stroke-dashoffset: 0; stroke-linejoin: miter; stroke-miterlimit: 4; fill: rgb(255,255,255); fill-rule: nonzero; opacity: 1;" vector-effect="non-scaling-stroke"  transform=" translate(-40, -40)" d="M 60 40 L 80 80 L 40 80 L 0 80 L 20 40 L 40 0 L 60 40 z" stroke-linecap="round" />
</g>
<g transform="matrix(1.4496153597 0 0 1.1530708009 253.3236175855 458.5474354057)" id="uO0YrX5p2eGjRzXO3U-Ed"  >
<path style="stroke: none; stroke-width: 1; stroke-dasharray: none; stroke-linecap: butt; stroke-dashoffset: 0; stroke-linejoin: miter; stroke-miterlimit: 4; fill: rgb(255,255,255); fill-rule: nonzero; opacity: 1;" vector-effect="non-scaling-stroke"  transform=" translate(-40, -40)" d="M 60 40 L 80 80 L 40 80 L 0 80 L 20 40 L 40 0 L 60 40 z" stroke-linecap="round" />
</g>
<g transform="matrix(3.7262839967 0 0 1.0602949894 320.8057119164 563.5166393528)" id="TA7cKZLATdttYxTOposAX"  >
<path style="stroke: rgb(124,88,105); stroke-width: 0; stroke-dasharray: none; stroke-linecap: butt; stroke-dashoffset: 0; stroke-linejoin: miter; stroke-miterlimit: 4; fill: rgb(255,255,255); fill-rule: nonzero; opacity: 1;" vector-effect="non-scaling-stroke"  transform=" translate(0, 0)" d="M -71.5 -71.5 L 71.5 -71.5 L 71.5 71.5 L -71.5 71.5 z" stroke-linecap="round" />
</g>
<g transform="matrix(1.1884583798 1.8686951943 -0.8288176544 0.5929094336 491.2604835228 320.7090867882)" id="GgfZBJlxWzLzc_6izpDI0"  >
<path style="stroke: rgb(124,88,105); stroke-width: 0; stroke-dasharray: none; stroke-linecap: butt; stroke-dashoffset: 0; stroke-linejoin: miter; stroke-miterlimit: 4; fill: rgb(255,255,255); fill-rule: nonzero; opacity: 1;" vector-effect="non-scaling-stroke"  transform=" translate(0, 0)" d="M -71.5 -71.5 L 71.5 -71.5 L 71.5 71.5 L -71.5 71.5 z" stroke-linecap="round" />
</g>
<g transform="matrix(-1.1884583798 1.8686951943 0.8288176544 0.5929094336 148.3514708484 320.7090867882)" id="dqGasSW6lsdXk-J0M-ZhJ"  >
<path style="stroke: rgb(124,88,105); stroke-width: 0; stroke-dasharray: none; stroke-linecap: butt; stroke-dashoffset: 0; stroke-linejoin: miter; stroke-miterlimit: 4; fill: rgb(255,255,255); fill-rule: nonzero; opacity: 1;" vector-effect="non-scaling-stroke"  transform=" translate(0, 0)" d="M -71.5 -71.5 L 71.5 -71.5 L 71.5 71.5 L -71.5 71.5 z" stroke-linecap="round" />
</g>
</svg>